[Header]
FileType HTR
DataType HTRS
FileVersion 1
NumSegments 64
NumFrames 4
DataFrameRate 30
EulerRotationOrder ZYX
CalibrationUnits mm
RotationUnits Degrees
GlobalAxisofGravity Y
BoneLengthAxis Y
ScaleFactor 1.0
[SegmentNames&Hierarchy]
Hips	GLOBAL
Spine	Hips
Spine1	Spine
Spine2	Spine1
Neck	Spine2
Head	Neck
LeftEye	Head
RightEye	Head
LeftShoulder	Spine2
LeftArm	LeftShoulder
LeftForeArm	LeftArm
LeftHand	LeftForeArm
LeftHandThumb1	LeftHand
LeftHandThumb2	LeftHandThumb1
LeftHandThumb3	LeftHandThumb2
LeftHandThumb4	LeftHandThumb3
LeftHandIndex1	LeftHand
LeftHandIndex2	LeftHandIndex1
LeftHandIndex3	LeftHandIndex2
LeftHandIndex4	LeftHandIndex3
LeftHandMiddle1	LeftHand
LeftHandMiddle2	LeftHandMiddle1
LeftHandMiddle3	LeftHandMiddle2
LeftHandMiddle4	LeftHandMiddle3
LeftHandRing1	LeftHand
LeftHandRing2	LeftHandRing1
LeftHandRing3	LeftHandRing2
LeftHandRing4	LeftHandRing3
LeftHandPinky1	LeftHand
LeftHandPinky2	LeftHandPinky1
LeftHandPinky3	LeftHandPinky2
LeftHandPinky4	LeftHandPinky3
RightShoulder	Spine2
RightArm	RightShoulder
RightForeArm	RightArm
RightHand	RightForeArm
RightHandPinky1	RightHand
RightHandPinky2	RightHandPinky1
RightHandPinky3	RightHandPinky2
RightHandPinky4	RightHandPinky3
RightHandRing1	RightHand
RightHandRing2	RightHandRing1
RightHandRing3	RightHandRing2
RightHandRing4	RightHandRing3
RightHandMiddle1	RightHand
RightHandMiddle2	RightHandMiddle1
RightHandMiddle3	RightHandMiddle2
RightHandMiddle4	RightHandMiddle3
RightHandIndex1	RightHand
RightHandIndex2	RightHandIndex1
RightHandIndex3	RightHandIndex2
RightHandIndex4	RightHandIndex3
RightHandThumb1	RightHand
RightHandThumb2	RightHandThumb1
RightHandThumb3	RightHandThumb2
RightHandThumb4	RightHandThumb3
LeftUpLeg	Hips
LeftLeg	LeftUpLeg
LeftFoot	LeftLeg
LeftToeBase	LeftFoot
RightUpLeg	Hips
RightLeg	RightUpLeg
RightFoot	RightLeg
RightToeBase	RightFoot
[BasePosition]
Hips	0	0	0	0	0	0	1
Spine	0	0	0	0	0	0	1
Spine1	0	0	0	0	0	0	1
Spine2	0	0	0	0	0	0	1
Neck	0	0	0	0	0	0	1
Head	0	0	0	0	0	0	1
LeftEye	0	0	0	0	0	0	1
RightEye	0	0	0	0	0	0	1
LeftShoulder	0	0	0	0	0	0	1
LeftArm	0	0	0	0	0	0	1
LeftForeArm	0	0	0	0	0	0	1
LeftHand	0	0	0	0	0	0	1
LeftHandThumb1	0	0	0	0	0	0	1
LeftHandThumb2	0	0	0	0	0	0	1
LeftHandThumb3	0	0	0	0	0	0	1
LeftHandThumb4	0	0	0	0	0	0	1
LeftHandIndex1	0	0	0	0	0	0	1
LeftHandIndex2	0	0	0	0	0	0	1
LeftHandIndex3	0	0	0	0	0	0	1
LeftHandIndex4	0	0	0	0	0	0	1
LeftHandMiddle1	0	0	0	0	0	0	1
LeftHandMiddle2	0	0	0	0	0	0	1
LeftHandMiddle3	0	0	0	0	0	0	1
LeftHandMiddle4	0	0	0	0	0	0	1
LeftHandRing1	0	0	0	0	0	0	1
LeftHandRing2	0	0	0	0	0	0	1
LeftHandRing3	0	0	0	0	0	0	1
LeftHandRing4	0	0	0	0	0	0	1
LeftHandPinky1	0	0	0	0	0	0	1
LeftHandPinky2	0	0	0	0	0	0	1
LeftHandPinky3	0	0	0	0	0	0	1
LeftHandPinky4	0	0	0	0	0	0	1
RightShoulder	0	0	0	0	0	0	1
RightArm	0	0	0	0	0	0	1
RightForeArm	0	0	0	0	0	0	1
RightHand	0	0	0	0	0	0	1
RightHandPinky1	0	0	0	0	0	0	1
RightHandPinky2	0	0	0	0	0	0	1
RightHandPinky3	0	0	0	0	0	0	1
RightHandPinky4	0	0	0	0	0	0	1
RightHandRing1	0	0	0	0	0	0	1
RightHandRing2	0	0	0	0	0	0	1
RightHandRing3	0	0	0	0	0	0	1
RightHandRing4	0	0	0	0	0	0	1
RightHandMiddle1	0	0	0	0	0	0	1
RightHandMiddle2	0	0	0	0	0	0	1
RightHandMiddle3	0	0	0	0	0	0	1
RightHandMiddle4	0	0	0	0	0	0	1
RightHandIndex1	0	0	0	0	0	0	1
RightHandIndex2	0	0	0	0	0	0	1
RightHandIndex3	0	0	0	0	0	0	1
RightHandIndex4	0	0	0	0	0	0	1
RightHandThumb1	0	0	0	0	0	0	1
RightHandThumb2	0	0	0	0	0	0	1
RightHandThumb3	0	0	0	0	0	0	1
RightHandThumb4	0	0	0	0	0	0	1
LeftUpLeg	0	0	0	0	0	0	1
LeftLeg	0	0	0	0	0	0	1
LeftFoot	0	0	0	0	0	0	1
LeftToeBase	0	0	0	0	0	0	1
RightUpLeg	0	0	0	0	0	0	1
RightLeg	0	0	0	0	0	0	1
RightFoot	0	0	0	0	0	0	1
RightToeBase	0	0	0	0	0	0	1
[Hips]
55	-4.173391342	1032.325562	17.54557419	-2.638955116	-6.054419518	-3.440887451	1.0
56	-3.690810442	1032.654907	17.41109848	-2.762167454	-5.983146667	-3.422985315	1.0
57	-3.213889599	1032.974243	17.28001595	-2.885030508	-5.912273407	-3.405998945	1.0
58	-2.741260052	1033.283936	17.14947891	-3.006969929	-5.841946125	-3.389713287	1.0
[Spine]
55	0	101.8159943	1.315000057	3.461098194	1.387738705	2.809526205	1.0
56	0	101.8159943	1.315000057	3.436281204	1.383314252	2.819382191	1.0
57	0	101.8159943	1.315000057	3.411491871	1.37909615	2.828868389	1.0
58	0	101.8159943	1.315000057	3.386960745	1.375049829	2.837937593	1.0
[Spine1]
55	0	100.8349991	-10.00800037	1.227788925	0.3230201006	1.571022153	1.0
56	0	100.8349991	-10.00800037	1.204268575	0.3181470633	1.575705409	1.0
57	0	100.8349991	-10.00800037	1.180721045	0.3136088252	1.57998991	1.0
58	0	100.8349991	-10.00800037	1.157400489	0.3093189299	1.583936453	1.0
[Spine2]
55	0	91	-13.73399925	1.202763557	0.3395263553	1.579475164	1.0
56	0	91	-13.73399925	1.179187059	0.334674865	1.584246516	1.0
57	0	91	-13.73399925	1.155587316	0.3301717937	1.588624239	1.0
58	0	91	-13.73399925	1.132217526	0.3259246647	1.592658877	1.0
[Neck]
55	0	166.7169952	-25.16200066	6.562304974	0.05854519084	0.2211006582	1.0
56	0	166.7169952	-25.16200066	6.50919342	0.03033308312	0.2511053979	1.0
57	0	166.7169952	-25.16200066	6.455966949	0.003346309066	0.2785539031	1.0
58	0	166.7169952	-25.16200066	6.402165413	-0.02266000584	0.3042294681	1.0
[Head]
55	0	96.17900085	16.84999847	-7.673523903	2.174190044	-0.7608718872	1.0
56	0	96.17900085	16.84999847	-7.544798374	2.053560019	-0.6692331433	1.0
57	0	96.17900085	16.84999847	-7.414579391	1.937081695	-0.5822987556	1.0
58	0	96.17900085	16.84999847	-7.285151482	1.824152946	-0.4991064072	1.0
[LeftEye]
55	30.6760006	64.09500122	92.83599854	0	0	0	1.0
56	30.6760006	64.09500122	92.83599854	0	0	0	1.0
57	30.6760006	64.09500122	92.83599854	0	0	0	1.0
58	30.6760006	64.09500122	92.83599854	0	0	0	1.0
[RightEye]
55	-30.6760006	64.09500122	92.83499908	0	0	0	1.0
56	-30.6760006	64.09500122	92.83499908	0	0	0	1.0
57	-30.6760006	64.09500122	92.83499908	0	0	0	1.0
58	-30.6760006	64.09500122	92.83499908	0	0	0	1.0
[LeftShoulder]
55	45.70400238	109.4599991	-26.28000069	4.938761234	-16.77297401	-13.48598957	1.0
56	45.70400238	109.4599991	-26.28000069	4.93103981	-16.75188065	-13.4706955	1.0
57	45.70400238	109.4599991	-26.28000069	4.922647953	-16.72822952	-13.45527458	1.0
58	45.70400238	109.4599991	-26.28000069	4.913975239	-16.70377731	-13.43964863	1.0
[LeftArm]
55	105.923996	-5.24600029	-22.32099915	22.44467354	-4.304673195	-68.83589172	1.0
56	105.923996	-5.24600029	-22.32099915	22.31920242	-4.251255512	-69.04846954	1.0
57	105.923996	-5.24600029	-22.32099915	22.17729187	-4.188452721	-69.26508331	1.0
58	105.923996	-5.24600029	-22.32099915	22.02163315	-4.11850214	-69.4848175	1.0
[LeftForeArm]
55	278.414978	-0.0009999999311	0	2.452524313e-06	-2.670205116	-0.0001834894647	1.0
56	278.414978	-0.0009999999311	0	5.552204243e-07	-2.588697195	-0.0001842947095	1.0
57	278.414978	-0.0009999999311	0	-1.223974323e-06	-2.505518913	-0.0001855455484	1.0
58	278.414978	-0.0009999999311	0	-2.821900125e-06	-2.420180321	-0.0001871681161	1.0
[LeftHand]
55	283.2879944	0	0	-32.92139053	-5.312687874	-4.314328671	1.0
56	283.2879944	0	0	-33.04797363	-5.333834648	-4.354602337	1.0
57	283.2879944	0	0	-33.17285919	-5.353815079	-4.385539055	1.0
58	283.2879944	0	0	-33.29409409	-5.370896816	-4.410912514	1.0
[LeftHandThumb1]
55	24.6609993	-15.75	26.8239994	-1.674803615	1.526334882	4.10889864	1.0
56	24.6609993	-15.75	26.8239994	-1.721511483	1.529000401	4.136762619	1.0
57	24.6609993	-15.75	26.8239994	-1.758571625	1.532850862	4.157827854	1.0
58	24.6609993	-15.75	26.8239994	-1.7876302	1.538615108	4.173899651	1.0
[LeftHandThumb2]
55	32.29800034	-18.64699936	18.64699936	19.35923958	15.83962727	16.18664551	1.0
56	32.29800034	-18.64699936	18.64699936	19.34139633	15.80389023	16.11833763	1.0
57	32.29800034	-18.64699936	18.64699936	19.32465744	15.76898956	16.05699348	1.0
58	32.29800034	-18.64699936	18.64699936	19.30983543	15.73706245	16.00470734	1.0
[LeftHandThumb3]
55	26.52600098	-15.31499958	15.31499958	-12.36427689	4.064967632	11.66010284	1.0
56	26.52600098	-15.31499958	15.31499958	-12.34212303	4.046302795	11.70482063	1.0
57	26.52600098	-15.31499958	15.31499958	-12.3226862	4.031228065	11.7485714	1.0
58	26.52600098	-15.31499958	15.31499958	-12.30706596	4.020679951	11.79046822	1.0
[LeftHandThumb4]
55	19.54599953	-11.28499985	11.28499985	0	0	0	1.0
56	19.54599953	-11.28499985	11.28499985	0	0	0	1.0
57	19.54599953	-11.28499985	11.28499985	0	0	0	1.0
58	19.54599953	-11.28499985	11.28499985	0	0	0	1.0
[LeftHandIndex1]
55	91.09299469	-5.170999527	22.60099792	0.329667896	-0.9287743568	-7.486484051	1.0
56	91.09299469	-5.170999527	22.60099792	0.3226595819	-0.9309270978	-7.486942768	1.0
57	91.09299469	-5.170999527	22.60099792	0.3172523975	-0.9327301979	-7.4868927	1.0
58	91.09299469	-5.170999527	22.60099792	0.3126106858	-0.9342392683	-7.487430573	1.0
[LeftHandIndex2]
55	36.76399994	0	0	-0.2685900331	1.751186848	-17.43830872	1.0
56	36.76399994	0	0	-0.2683791816	1.750513077	-17.43138123	1.0
57	36.76399994	0	0	-0.2681809664	1.74987936	-17.42487144	1.0
58	36.76399994	0	0	-0.267993778	1.749281168	-17.41872406	1.0
[LeftHandIndex3]
55	28.83100128	0	0	-0.05831458047	0.8235782385	-8.100151062	1.0
56	28.83100128	0	0	-0.05821530148	0.8228812814	-8.093253136	1.0
57	28.83100128	0	0	-0.05812194943	0.8222253323	-8.086762428	1.0
58	28.83100128	0	0	-0.05803383887	0.8216058016	-8.080634117	1.0
[LeftHandIndex4]
55	23.92700005	0	0	0	0	0	1.0
56	23.92700005	0	0	0	0	0	1.0
57	23.92700005	0	0	0	0	0	1.0
58	23.92700005	0	0	0	0	0	1.0
[LeftHandMiddle1]
55	95.33399963	0	0	-0.8100316525	2.648878098	-15.94708347	1.0
56	95.33399963	0	0	-0.8138969541	2.641884804	-16.00428581	1.0
57	95.33399963	0	0	-0.817460835	2.636065245	-16.05696869	1.0
58	95.33399963	0	0	-0.820830822	2.630968809	-16.1067524	1.0
[LeftHandMiddle2]
55	36.98199844	0	0	-0.2646477222	1.738593578	-17.30887222	1.0
56	36.98199844	0	0	-0.2651162148	1.740095615	-17.32429886	1.0
57	36.98199844	0	0	-0.2655690014	1.741546869	-17.33920288	1.0
58	36.98199844	0	0	-0.2660075128	1.742951751	-17.35363579	1.0
[LeftHandMiddle3]
55	29.50900078	0	0	-0.2960627973	1.836316347	-18.3159523	1.0
56	29.50900078	0	0	-0.2965583205	1.837810278	-18.3313942	1.0
57	29.50900078	0	0	-0.2970373631	1.839254141	-18.34631729	1.0
58	29.50900078	0	0	-0.297501862	1.840654135	-18.36078644	1.0
[LeftHandMiddle4]
55	28.3390007	0	0	0	0	0	1.0
56	28.3390007	0	0	0	0	0	1.0
57	28.3390007	0	0	0	0	0	1.0
58	28.3390007	0	0	0	0	0	1.0
[LeftHandRing1]
55	91.04499817	-0.4390000105	-18.65100098	-1.316912889	3.540964603	-22.88713074	1.0
56	91.04499817	-0.4390000105	-18.65100098	-1.320411563	3.540130854	-22.93210983	1.0
57	91.04499817	-0.4390000105	-18.65100098	-1.323158264	3.539263248	-22.96736526	1.0
58	91.04499817	-0.4390000105	-18.65100098	-1.325336576	3.538305044	-22.99528313	1.0
[LeftHandRing2]
55	31.54000092	0	0	-0.3968649507	2.116317034	-21.23656654	1.0
56	31.54000092	0	0	-0.4004837275	2.125553608	-21.33392334	1.0
57	31.54000092	0	0	-0.4038854241	2.134216785	-21.42526627	1.0
58	31.54000092	0	0	-0.4071019888	2.142397404	-21.51153564	1.0
[LeftHandRing3]
55	29.37700081	0	0	-0.2921904027	1.82438767	-18.19286537	1.0
56	29.37700081	0	0	-0.2953497767	1.833913565	-18.29133415	1.0
57	29.37700081	0	0	-0.2983183563	1.842840433	-18.38363647	1.0
58	29.37700081	0	0	-0.3011246324	1.85126555	-18.47076416	1.0
[LeftHandRing4]
55	26.47500038	0	0	0	0	0	1.0
56	26.47500038	0	0	0	0	0	1.0
57	26.47500038	0	0	0	0	0	1.0
58	26.47500038	0	0	0	0	0	1.0
[LeftHandPinky1]
55	80.77799988	-4.887000084	-38.06099701	-1.925674438	5.166944981	-27.62751579	1.0
56	80.77799988	-4.887000084	-38.06099701	-1.943510056	5.148165703	-27.61929131	1.0
57	80.77799988	-4.887000084	-38.06099701	-1.959634185	5.131891251	-27.60893631	1.0
58	80.77799988	-4.887000084	-38.06099701	-1.974536657	5.1172328	-27.59699631	1.0
[LeftHandPinky2]
55	36	0	0	-0.2865448594	1.807331562	-18.01663971	1.0
56	36	0	0	-0.2862620056	1.806463599	-18.00767899	1.0
57	36	0	0	-0.2859789431	1.80559516	-17.99871063	1.0
58	36	0	0	-0.2856986225	1.804734945	-17.98983002	1.0
[LeftHandPinky3]
55	21.14200211	0	0	-0.258920908	1.720114946	-17.11907005	1.0
56	21.14200211	0	0	-0.2586429715	1.71921134	-17.10980797	1.0
57	21.14200211	0	0	-0.2583608627	1.718294382	-17.10040665	1.0
58	21.14200211	0	0	-0.2580792904	1.717379332	-17.09102249	1.0
[LeftHandPinky4]
55	19.75699997	0	0	0	0	0	1.0
56	19.75699997	0	0	0	0	0	1.0
57	19.75699997	0	0	0	0	0	1.0
58	19.75699997	0	0	0	0	0	1.0
[RightShoulder]
55	-45.70000076	109.4620056	-26.28000069	5.355782509	15.14833069	15.52166557	1.0
56	-45.70000076	109.4620056	-26.28000069	5.334439754	15.06802273	15.52509785	1.0
57	-45.70000076	109.4620056	-26.28000069	5.312636375	14.98607635	15.52840614	1.0
58	-45.70000076	109.4620056	-26.28000069	5.290682316	14.90355301	15.53179932	1.0
[RightArm]
55	-105.9280014	-5.248000145	-22.32099915	29.24522591	2.735626936	61.1892395	1.0
56	-105.9280014	-5.248000145	-22.32099915	29.25479126	2.626093149	61.32754898	1.0
57	-105.9280014	-5.248000145	-22.32099915	29.2808094	2.514657021	61.47348022	1.0
58	-105.9280014	-5.248000145	-22.32099915	29.31929588	2.402429581	61.62519836	1.0
[RightForeArm]
55	-278.414978	0	0	1.226330028e-06	6.820280075	3.725393981e-06	1.0
56	-278.414978	0	0	1.732068768e-06	6.789004326	8.044777132e-06	1.0
57	-278.414978	0	0	2.123580543e-06	6.758925438	1.217364479e-05	1.0
58	-278.414978	0	0	2.480048579e-06	6.729674339	1.58821349e-05	1.0
[RightHand]
55	-283.2879944	0	0.0009999999311	-20.93880272	2.52146554	6.250294209	1.0
56	-283.2879944	0	0.0009999999311	-20.86786079	2.446000576	6.328435421	1.0
57	-283.2879944	0	0.0009999999311	-20.80657768	2.378558636	6.421059608	1.0
58	-283.2879944	0	0.0009999999311	-20.75024033	2.31583643	6.523059368	1.0
[RightHandPinky1]
55	-80.76699829	-4.885000229	-38.06000137	-1.676251173	-4.645091534	28.58140564	1.0
56	-80.76699829	-4.885000229	-38.06000137	-1.657391787	-4.656413555	28.35313988	1.0
57	-80.76699829	-4.885000229	-38.06000137	-1.638212919	-4.667665958	28.12088776	1.0
58	-80.76699829	-4.885000229	-38.06000137	-1.62003386	-4.678976059	27.90216446	1.0
[RightHandPinky2]
55	-36	0	0.0009999999311	-0.2141587436	-1.39330101	17.49529266	1.0
56	-36	0	0.0009999999311	-0.2139656991	-1.392686605	17.48733139	1.0
57	-36	0	0.0009999999311	-0.2137533575	-1.392011285	17.47858047	1.0
58	-36	0	0.0009999999311	-0.2135381699	-1.391327262	17.46971512	1.0
[RightHandPinky3]
55	-21.14200211	0	0	-0.1929705143	-1.324159503	16.58218384	1.0
56	-21.14200211	0	0	-0.1928216815	-1.323657036	16.57572746	1.0
57	-21.14200211	0	0	-0.192654863	-1.323093891	16.56848907	1.0
58	-21.14200211	0	0	-0.1924846023	-1.322519064	16.56110001	1.0
[RightHandPinky4]
55	-19.75699997	0	0	0	0	0	1.0
56	-19.75699997	0	0	0	0	0	1.0
57	-19.75699997	0	0	0	0	0	1.0
58	-19.75699997	0	0	0	0	0	1.0
[RightHandRing1]
55	-91.03599548	-0.4390000105	-18.65100098	-1.12787807	-3.075905561	21.71734428	1.0
56	-91.03599548	-0.4390000105	-18.65100098	-1.11865449	-3.069248199	21.57950401	1.0
57	-91.03599548	-0.4390000105	-18.65100098	-1.109200597	-3.06224966	21.4382515	1.0
58	-91.03599548	-0.4390000105	-18.65100098	-1.100250006	-3.057664394	21.30452156	1.0
[RightHandRing2]
55	-31.54000092	0	0	-0.3019488454	-1.646286011	20.78454399	1.0
56	-31.54000092	0	0	-0.3028878868	-1.648750067	20.8171196	1.0
57	-31.54000092	0	0	-0.3038172126	-1.651188135	20.84935379	1.0
58	-31.54000092	0	0	-0.3047298491	-1.653582215	20.88100433	1.0
[RightHandRing3]
55	-29.37700081	0	0	-0.2204957008	-1.413243532	17.73403549	1.0
56	-29.37700081	0	0	-0.2213019878	-1.41575706	17.7666378	1.0
57	-29.37700081	0	0	-0.2220997512	-1.418243527	17.79888916	1.0
58	-29.37700081	0	0	-0.2228836715	-1.420686364	17.83057976	1.0
[RightHandRing4]
55	-26.47500038	0	0	0	0	0	1.0
56	-26.47500038	0	0	0	0	0	1.0
57	-26.47500038	0	0	0	0	0	1.0
58	-26.47500038	0	0	0	0	0	1.0
[RightHandMiddle1]
55	-95.32500458	0	0	-0.7940852642	-2.314358473	16.53534889	1.0
56	-95.32500458	0	0	-0.7828304172	-2.298923969	16.3508873	1.0
57	-95.32500458	0	0	-0.7713157535	-2.282604218	16.16223145	1.0
58	-95.32500458	0	0	-0.7602354884	-2.267383337	15.98075199	1.0
[RightHandMiddle2]
55	-36.98199844	0	0	-0.2126442194	-1.388498425	17.41329384	1.0
56	-36.98199844	0	0	-0.2127966285	-1.388985515	17.41959	1.0
57	-36.98199844	0	0	-0.2129445672	-1.389457703	17.42570114	1.0
58	-36.98199844	0	0	-0.2130895406	-1.389920115	17.4316864	1.0
[RightHandMiddle3]
55	-29.50900078	0	0	-0.2377829254	-1.468227863	18.42245102	1.0
56	-29.50900078	0	0	-0.237944603	-1.468712568	18.42876244	1.0
57	-29.50900078	0	0	-0.2381014824	-1.469183087	18.43488693	1.0
58	-29.50900078	0	0	-0.2382550985	-1.469644427	18.44088364	1.0
[RightHandMiddle4]
55	-28.3390007	0	0.0009999999311	0	0	0	1.0
56	-28.3390007	0	0.0009999999311	0	0	0	1.0
57	-28.3390007	0	0.0009999999311	0	0	0	1.0
58	-28.3390007	0	0.0009999999311	0	0	0	1.0
[RightHandIndex1]
55	-91.08300018	-5.167999744	22.60099792	0.1662233472	0.8581674099	7.824533463	1.0
56	-91.08300018	-5.167999744	22.60099792	0.1657343209	0.9005810022	7.75866127	1.0
57	-91.08300018	-5.167999744	22.60099792	0.1651252955	0.9446091652	7.691473007	1.0
58	-91.08300018	-5.167999744	22.60099792	0.164194271	0.9866550565	7.634908199	1.0
[RightHandIndex2]
55	-36.76399994	0	0	-0.2102611363	-1.380882502	17.31477737	1.0
56	-36.76399994	0	0	-0.2098679245	-1.379614592	17.29836845	1.0
57	-36.76399994	0	0	-0.2094543129	-1.378280997	17.28111076	1.0
58	-36.76399994	0	0	-0.2090586424	-1.3770051	17.26460266	1.0
[RightHandIndex3]
55	-28.83100128	0	0	-0.04472274333	-0.6426727772	7.960677624	1.0
56	-28.83100128	0	0	-0.04453910887	-0.6413581967	7.944275856	1.0
57	-28.83100128	0	0	-0.04434592277	-0.639975667	7.927027225	1.0
58	-28.83100128	0	0	-0.04416102543	-0.6386529803	7.910527229	1.0
[RightHandIndex4]
55	-23.92700005	0	0	0	0	0	1.0
56	-23.92700005	0	0	0	0	0	1.0
57	-23.92700005	0	0	0	0	0	1.0
58	-23.92700005	0	0	0	0	0	1.0
[RightHandThumb1]
55	-24.64799881	-15.72700024	26.82600021	-1.733466864	-0.3100134432	-2.733606577	1.0
56	-24.64799881	-15.72700024	26.82600021	-1.718645573	-0.3506765366	-2.778962374	1.0
57	-24.64799881	-15.72700024	26.82600021	-1.704062462	-0.3899975717	-2.826935768	1.0
58	-24.64799881	-15.72700024	26.82600021	-1.689733028	-0.432448566	-2.85584116	1.0
[RightHandThumb2]
55	-32.29800034	-18.64699936	18.64699936	22.3770237	-23.99820137	-24.34300232	1.0
56	-32.29800034	-18.64699936	18.64699936	22.39616966	-24.01405334	-24.35245895	1.0
57	-32.29800034	-18.64699936	18.64699936	22.41188812	-24.02702713	-24.36025238	1.0
58	-32.29800034	-18.64699936	18.64699936	22.43171883	-24.04324722	-24.37016487	1.0
[RightHandThumb3]
55	-26.52600098	-15.31399918	15.31399918	-14.67035484	-6.498655319	-11.30983734	1.0
56	-26.52600098	-15.31399918	15.31399918	-14.65231895	-6.521263599	-11.31537628	1.0
57	-26.52600098	-15.31399918	15.31399918	-14.63378239	-6.544506073	-11.3210907	1.0
58	-26.52600098	-15.31399918	15.31399918	-14.61710072	-6.565429688	-11.32626247	1.0
[RightHandThumb4]
55	-19.54599953	-11.28499985	11.28499985	0	0	0	1.0
56	-19.54599953	-11.28499985	11.28499985	0	0	0	1.0
57	-19.54599953	-11.28499985	11.28499985	0	0	0	1.0
58	-19.54599953	-11.28499985	11.28499985	0	0	0	1.0
[LeftUpLeg]
55	82.07800293	-67.51699829	-15.99599934	-9.534564972	16.40188789	8.039942741	1.0
56	82.07800293	-67.51699829	-15.99599934	-9.299356461	16.38509941	8.007159233	1.0
57	82.07800293	-67.51699829	-15.99599934	-9.068375587	16.36831284	7.97587204	1.0
58	82.07800293	-67.51699829	-15.99599934	-8.842024803	16.3515892	7.945618153	1.0
[LeftLeg]
55	0	-443.7049866	2.845999956	13.7211628	1.533911347	4.633800983	1.0
56	0	-443.7049866	2.845999956	13.46309948	1.483508229	4.622562885	1.0
57	0	-443.7049866	2.845999956	13.21345901	1.433002234	4.611755371	1.0
58	0	-443.7049866	2.845999956	12.97151375	1.382546544	4.601159573	1.0
[LeftFoot]
55	0	-444.2789917	-29.8219986	0.7272256017	0.605620265	-7.475579739	1.0
56	0	-444.2789917	-29.8219986	0.8096395731	0.6138335466	-7.441113472	1.0
57	0	-444.2789917	-29.8219986	0.8887223005	0.6217367649	-7.40788269	1.0
58	0	-444.2789917	-29.8219986	0.9647338986	0.6293699145	-7.375384808	1.0
[LeftToeBase]
55	0	-87.28699493	107.1060028	-4.807660103	-9.775220633e-08	-1.892673367e-06	1.0
56	0	-87.28699493	107.1060028	-4.817207813	1.200046199e-06	-2.122072829e-06	1.0
57	0	-87.28699493	107.1060028	-4.826500893	2.445184691e-06	-2.28516501e-06	1.0
58	0	-87.28699493	107.1060028	-4.835765362	3.540958915e-06	-2.368003607e-06	1.0
[RightUpLeg]
55	-82.07800293	-67.51699829	-15.99599934	-1.404236555	-10.28141403	3.783956051	1.0
56	-82.07800293	-67.51699829	-15.99599934	-1.123127937	-10.30046558	3.729223967	1.0
57	-82.07800293	-67.51699829	-15.99599934	-0.8458931446	-10.31956673	3.675750732	1.0
58	-82.07800293	-67.51699829	-15.99599934	-0.5738281012	-10.3388052	3.623195171	1.0
[RightLeg]
55	0	-443.7049866	2.861999989	9.614806175	-8.71115303	-4.486752033	1.0
56	0	-443.7049866	2.861999989	9.291685104	-8.775834084	-4.474342823	1.0
57	0	-443.7049866	2.861999989	8.976346016	-8.839769363	-4.462940216	1.0
58	0	-443.7049866	2.861999989	8.669750214	-8.902638435	-4.452355862	1.0
[RightFoot]
55	0	-444.2770081	-29.83799934	-4.819336414	-1.423828363	3.027935028	1.0
56	0	-444.2770081	-29.83799934	-4.650262356	-1.429219961	3.046437025	1.0
57	0	-444.2770081	-29.83799934	-4.485339165	-1.434406281	3.06525898	1.0
58	0	-444.2770081	-29.83799934	-4.324810505	-1.439377546	3.08432889	1.0
[RightToeBase]
55	0	-87.28699493	107.1060028	-7.233988285	7.921968063e-06	1.283947199e-06	1.0
56	0	-87.28699493	107.1060028	-7.238237858	8.589035133e-06	9.472300349e-07	1.0
57	0	-87.28699493	107.1060028	-7.242235184	9.15068722e-06	5.581360938e-07	1.0
58	0	-87.28699493	107.1060028	-7.246095181	9.627156032e-06	1.501824443e-07	1.0
[EndOfFile]
